<svg xmlns="http://www.w3.org/2000/svg" width="92" height="32" viewBox="0 0 92 32">
  <g id="samarth-logo-min" transform="translate(0 8)">
    <path id="eGov" d="M3.952-5.473A2.075,2.075,0,0,1,6.137-7.292,1.953,1.953,0,0,1,8.344-5.473ZM8.586-2.68A2.118,2.118,0,0,1,6.38-1.273,2.36,2.36,0,0,1,3.886-3.351h7.635a6.74,6.74,0,0,0,.066-1.018c0-3.464-2.1-5.521-5.495-5.521A5.477,5.477,0,0,0,.62-4.217,5.533,5.533,0,0,0,6.336,1.52,4.918,4.918,0,0,0,11.389-1.9ZM28.425,1.2V-7.01H20.459v2.9h4.7A3.7,3.7,0,0,1,21.3-1.6a4.521,4.521,0,0,1-4.7-4.871,4.494,4.494,0,0,1,4.612-4.806,3.757,3.757,0,0,1,3.884,2.685l3.354-1.147c-.684-2.143-2.758-4.742-7.238-4.742a7.878,7.878,0,0,0-8.143,8.011A7.706,7.706,0,0,0,20.989,1.52,5.222,5.222,0,0,0,25.38-.364L25.6,1.2Zm7.746-2.706A2.46,2.46,0,0,1,33.7-4.2a2.43,2.43,0,0,1,2.472-2.663A2.418,2.418,0,0,1,38.643-4.2,2.437,2.437,0,0,1,36.171-1.511Zm0-8.379A5.615,5.615,0,0,0,30.345-4.2,5.632,5.632,0,0,0,36.171,1.52,5.62,5.62,0,0,0,42-4.2,5.6,5.6,0,0,0,36.171-9.89Zm18.449.325H51.089L48.75-2.875l-2.538-6.69H42.571l4.5,10.76h3.376Z" transform="translate(37.38 14.48)" fill="#22222e"/>
    <g id="S">
      <rect id="Rectangle" width="32" height="32" rx="8" transform="translate(0 -8)" fill="#5c60f5" opacity="0.88"/>
      <path id="Samarth" d="M13.355-41.52c-.326-1.8-1.783-4.092-5.63-4.092-2.957,0-5.522,2.035-5.522,4.936,0,2.273,1.587,4.005,4.2,4.5l2.109.39c1.022.195,1.652.758,1.652,1.537,0,.953-.826,1.6-2.174,1.6a2.861,2.861,0,0,1-3.2-2.641l-3.152.758c.217,2.165,2.043,4.915,6.3,4.915,3.674,0,5.7-2.447,5.7-4.85,0-2.187-1.522-4.07-4.457-4.612l-2.065-.39c-1.065-.195-1.522-.736-1.522-1.472A1.89,1.89,0,0,1,7.7-42.581a2.331,2.331,0,0,1,2.565,1.927Z" transform="translate(8.362 45.612)" fill="#fff"/>
    </g>
  </g>
</svg>
