<svg xmlns="http://www.w3.org/2000/svg" width="92" height="32" viewBox="0 0 92 32">
  <g id="samarth-logo-min-white" transform="translate(0 8.001)">
    <path id="eGov" d="M3.952-5.473A2.075,2.075,0,0,1,6.137-7.292a1.953,1.953,0,0,1,1.5.429,1.953,1.953,0,0,1,.707,1.39ZM8.586-2.68A2.118,2.118,0,0,1,6.38-1.273,2.36,2.36,0,0,1,3.886-3.351h7.635a6.74,6.74,0,0,0,.066-1.018c0-3.464-2.1-5.521-5.495-5.521A5.477,5.477,0,0,0,2.151-8.215a5.477,5.477,0,0,0-1.531,4A5.533,5.533,0,0,0,2.23-.1,5.533,5.533,0,0,0,6.336,1.52,4.918,4.918,0,0,0,11.389-1.9ZM28.425,1.2V-7.01H20.459v2.9h4.7A3.7,3.7,0,0,1,21.3-1.6a4.521,4.521,0,0,1-3.446-1.378A4.521,4.521,0,0,1,16.6-6.471,4.494,4.494,0,0,1,17.841-9.9a4.494,4.494,0,0,1,3.371-1.381A3.757,3.757,0,0,1,25.1-8.592l3.35-1.147c-.684-2.143-2.758-4.742-7.238-4.742a7.878,7.878,0,0,0-5.791,2.258A7.878,7.878,0,0,0,13.069-6.47,7.706,7.706,0,0,0,15.3-.758,7.706,7.706,0,0,0,20.989,1.52,5.222,5.222,0,0,0,25.38-.364L25.6,1.2Zm7.746-2.706a2.46,2.46,0,0,1-1.835-.8A2.46,2.46,0,0,1,33.7-4.2a2.43,2.43,0,0,1,.638-1.887,2.43,2.43,0,0,1,1.834-.776,2.418,2.418,0,0,1,1.838.772A2.418,2.418,0,0,1,38.643-4.2a2.437,2.437,0,0,1-.63,1.9,2.437,2.437,0,0,1-1.842.787Zm0-8.379a5.615,5.615,0,0,0-4.133,1.592A5.615,5.615,0,0,0,30.345-4.2,5.632,5.632,0,0,0,32.031-.09a5.632,5.632,0,0,0,4.14,1.61,5.62,5.62,0,0,0,4.146-1.6A5.62,5.62,0,0,0,42-4.2a5.6,5.6,0,0,0-1.687-4.1,5.6,5.6,0,0,0-4.142-1.59ZM54.62-9.56H51.089L48.75-2.875l-2.538-6.69H42.571l4.5,10.76h3.376Z" transform="translate(37.38 14.48)" fill="#fff"/>
    <g id="S">
      <path id="Exclusion_1" data-name="Exclusion 1" d="M4306-10588h-16a8.009,8.009,0,0,1-8-8v-16a8.011,8.011,0,0,1,8-8h16a8.011,8.011,0,0,1,8,8v16A8.009,8.009,0,0,1,4306-10588Zm-10.848-13.676-3.153.757a5.307,5.307,0,0,0,1.636,3.269,6.635,6.635,0,0,0,4.665,1.646,6.087,6.087,0,0,0,4.228-1.524,4.611,4.611,0,0,0,1.473-3.324c0-2.339-1.708-4.106-4.459-4.613l-2.063-.389c-1.012-.186-1.525-.682-1.525-1.475a1.894,1.894,0,0,1,1.875-1.653,1.868,1.868,0,0,1,.234.015,2.379,2.379,0,0,1,.268-.016,2.325,2.325,0,0,1,2.3,1.942l3.089-.866c-.173-.959-1.089-4.091-5.629-4.091a5.908,5.908,0,0,0-3.871,1.38,4.64,4.64,0,0,0-1.652,3.556c0,2.286,1.61,4.01,4.2,4.5l2.108.392c1.035.2,1.653.771,1.653,1.535,0,.972-.854,1.6-2.175,1.6a2.88,2.88,0,0,1-.348.021,2.874,2.874,0,0,1-1.819-.653,2.862,2.862,0,0,1-1.032-2.007Z" transform="translate(-4282 10612)" fill="#fff" opacity="0.88"/>
    </g>
  </g>
</svg>
